<svg width="16.666666" height="15.649536" viewBox="0 0 16.6667 15.6495" fill="none" xmlns="http://www.w3.org/2000/svg" xmlns:xlink="http://www.w3.org/1999/xlink">
	<desc>
			Created with Pixso.
	</desc>
	<defs/>
	<path id="Fill 1" d="M9.14692 0.505371L11.0023 4.19067C11.139 4.45764 11.3999 4.64307 11.7008 4.68433L15.8684 5.28418C16.1117 5.31799 16.3326 5.44495 16.4818 5.63855C16.6294 5.82983 16.6927 6.07202 16.6569 6.31018C16.6277 6.50793 16.5335 6.69092 16.3893 6.83105L13.3695 9.72437C13.1486 9.92627 13.0486 10.2255 13.1019 10.5179L13.8454 14.5856C13.9246 15.0768 13.5954 15.5399 13.1019 15.6331C12.8986 15.6652 12.6902 15.6313 12.5068 15.5391L8.78934 13.6248C8.51345 13.4871 8.18755 13.4871 7.91165 13.6248L4.19419 15.5391C3.73742 15.7789 3.17147 15.6157 2.91725 15.1707C2.82306 14.9935 2.78972 14.7916 2.82056 14.5947L3.56405 10.5262C3.6174 10.2345 3.51654 9.93372 3.29649 9.73181L0.27668 6.84009C-0.0825615 6.49731 -0.093399 5.93274 0.25251 5.57764C0.26001 5.57019 0.268345 5.56201 0.27668 5.55371C0.420044 5.40955 0.608418 5.31799 0.811794 5.29407L4.97935 4.69336C5.27942 4.65137 5.54031 4.46753 5.67784 4.19897L7.46656 0.505371C7.62576 0.188965 7.95583 -0.00793457 8.31424 0.000244141L8.42593 0.000244141C8.73683 0.0373535 9.00772 0.227661 9.14692 0.505371Z" fill="#FAC412" fill-opacity="1.000000" fill-rule="nonzero"/>
</svg>
